<mxfile host="Electron" modified="2023-06-03T18:27:09.065Z" agent="Mozilla/5.0 (Windows NT 10.0; Win64; x64) AppleWebKit/537.36 (KHTML, like Gecko) draw.io/21.1.2 Chrome/106.0.5249.199 Electron/21.4.3 Safari/537.36" etag="A96Jr6h_-hLU5iUcpfFs" version="21.1.2" type="device">
  <diagram name="Page-1" id="HBJPF6dLf_c44qDuFHce">
    <mxGraphModel dx="863" dy="516" grid="1" gridSize="10" guides="1" tooltips="1" connect="1" arrows="1" fold="1" page="1" pageScale="1" pageWidth="850" pageHeight="1100" math="0" shadow="0">
      <root>
        <mxCell id="0" />
        <mxCell id="1" parent="0" />
        <mxCell id="9gSIwg6gFWN89OeQqdVB-1" value="&lt;b&gt;&lt;font style=&quot;font-size: 18px;&quot;&gt;Components&lt;/font&gt;&lt;/b&gt;&lt;br&gt;DC motors: 2&lt;br&gt;Frame&lt;br&gt;Encoder modules: 2&lt;br&gt;Encoder plates: 2&lt;br&gt;Omni wheels: 4&lt;br&gt;Batteries: 3&lt;br&gt;Microcontrollers: 2 (STM32)&lt;br&gt;Joystick&lt;br&gt;Sonic wave sensor&lt;br&gt;NRF24l01 modules: 2&lt;br&gt;Servo motors: 2" style="rounded=0;whiteSpace=wrap;html=1;align=left;" vertex="1" parent="1">
          <mxGeometry x="120" y="80" width="260" height="200" as="geometry" />
        </mxCell>
      </root>
    </mxGraphModel>
  </diagram>
</mxfile>
